<svg height="24" viewBox="0 0 24 24" width="24" xmlns="http://www.w3.org/2000/svg"><g fill="none"><path d="m0 0h24v24h-24z"/><path d="m20 14.5c.8284 0 1.5.6716 1.5 1.5v4c0 1.3807-1.1193 2.5-2.5 2.5h-14c-1.38071 0-2.5-1.1193-2.5-2.5v-4c0-.8284.67157-1.5 1.5-1.5s1.5.6716 1.5 1.5v3.5h13v-3.5c0-.8284.6716-1.5 1.5-1.5zm-6.7626-11.37916 4.0659 4.06586c.5858.58579.5858 1.53554 0 2.12132-.5858.58579-1.5355.58579-2.1213 0l-1.682-1.68198v8.37396c0 .8284-.6716 1.5-1.5 1.5s-1.5-.6716-1.5-1.5v-8.37396l-1.68198 1.68198c-.58579.58579-1.53553.58579-2.12132 0-.58579-.58578-.58579-1.53553 0-2.12132l4.0659-4.06586c.6834-.68342 1.7914-.68342 2.4748 0z" fill="#09244b"/></g></svg>